<svg xmlns="http://www.w3.org/2000/svg" xmlns:xlink="http://www.w3.org/1999/xlink" viewBox="0 0 1686 1686">
  <defs>
    <linearGradient id="d">
      <stop offset="0" stop-color="#06cece"/>
      <stop offset=".7" stop-color="#05b89a"/>
      <stop offset="1" stop-color="#05ab8d"/>
    </linearGradient>
    <linearGradient id="c">
      <stop offset="0" stop-color="#06dac1"/>
      <stop offset=".7" stop-color="#06dac1"/>
      <stop offset=".8" stop-color="#06dac1" stop-opacity=".2"/>
      <stop offset="1" stop-color="#06dac1" stop-opacity="0"/>
    </linearGradient>
    <linearGradient id="b">
      <stop offset="0" stop-color="#05c2a4"/>
      <stop offset=".5" stop-color="#02a68c"/>
      <stop offset="1" stop-color="#00947d"/>
    </linearGradient>
    <linearGradient id="a">
      <stop offset="0" stop-color="#06dac1"/>
      <stop offset=".5" stop-color="#06dac1"/>
      <stop offset=".7" stop-color="#06dac1" stop-opacity=".1"/>
      <stop offset="1" stop-color="#06dac1" stop-opacity="0"/>
    </linearGradient>
    <linearGradient id="g" x1="800.4" x2="800.4" y1="338" y2="810.9" gradientUnits="userSpaceOnUse" xlink:href="#c"/>
    <radialGradient id="e" cx="817" cy="-391.5" r="365.9" fx="817" fy="-391.5" gradientTransform="matrix(0 .28147 -2.50487 .00006 -163.6 321)" gradientUnits="userSpaceOnUse" xlink:href="#d"/>
    <filter id="f" width="1.3" height="1.1" x="-.1" y="-.1" color-interpolation-filters="sRGB">
      <feGaussianBlur stdDeviation="15.2"/>
    </filter>
  </defs>
  <rect width="268.4" height="615.6" x="693.7" y="333.7" fill="none" stroke="#076b60" stroke-linecap="round" stroke-linejoin="round" stroke-width="60.1" rx="134.2"/>
  <path fill="url(#e)" d="M460.5 592.4h731.9v47.2H460.5z"/>
  <rect width="268.4" height="615.6" x="693.7" y="333.7" fill="none" stroke="#000" stroke-linecap="round" stroke-linejoin="round" stroke-width="24.6" filter="url(#f)" opacity=".3" rx="134.2" transform="matrix(1.0401 0 0 .9555 -33.2 28.6)"/>
  <path fill="#00cdab" d="M1228 639.6v689.8a56.6 56.6 0 01-56.6 56.7H481.5a56.6 56.6 0 01-56.7-56.7V639.6z"/>
  <path fill="#049b84" d="M1192.4 592.4v47.2h35.7zM460.5 592.4l-35.7 47.2h35.7z"/>
  <path style="line-height:normal;font-variant-ligatures:normal;font-variant-position:normal;font-variant-caps:normal;font-variant-numeric:normal;font-variant-alternates:normal;font-variant-east-asian:normal;font-feature-settings:normal;font-variation-settings:normal;text-indent:0;text-align:start;text-decoration-line:none;text-decoration-style:solid;text-decoration-color:#000;text-transform:none;text-orientation:mixed;white-space:normal;shape-padding:0;shape-margin:0;inline-size:0;isolation:auto;mix-blend-mode:normal;solid-color:#000;solid-opacity:1" fill="url(#g)" d="M828 288.2c-115.8 0-210 94.3-210 210v292c0 115.7 94.2 210 210 210 115.6 0 209.9-94.3 209.9-210v-292c0-115.7-94.3-210-210-210zm0 70c78 0 139.8 61.9 139.8 140v292c0 78.1-61.8 140-139.9 140-78.1 0-140-61.9-140-140v-292c0-78.1 61.9-140 140-140z" color="#000" enable-background="accumulate" font-family="sans-serif" font-weight="400" overflow="visible"/>
</svg>
