<svg xmlns="http://www.w3.org/2000/svg" xmlns:xlink="http://www.w3.org/1999/xlink" viewBox="0 0 1686 1686"><defs><linearGradient id="d"><stop offset="0" stop-color="#06cece"/><stop offset=".67961234" stop-color="#05b89a"/><stop offset="1" stop-color="#05ab8d"/></linearGradient><linearGradient id="c"><stop offset="0" stop-color="#06dac1"/><stop offset=".66492563" stop-color="#06dac1"/><stop offset=".82700914" stop-color="#06dac1" stop-opacity=".21544716"/><stop offset="1" stop-color="#06dac1" stop-opacity="0"/></linearGradient><linearGradient id="b"><stop offset="0" stop-color="#05c2a4"/><stop offset=".49999997" stop-color="#02a68c"/><stop offset="1" stop-color="#00947d"/></linearGradient><linearGradient id="a"><stop offset="0" stop-color="#06dac1"/><stop offset=".49999997" stop-color="#06dac1"/><stop offset=".71527773" stop-color="#06dac1" stop-opacity=".12601626"/><stop offset="1" stop-color="#06dac1" stop-opacity="0"/></linearGradient><linearGradient id="g" x1="800.44489" x2="800.44489" y1="337.99704" y2="810.93732" gradientUnits="userSpaceOnUse" xlink:href="#c"/><radialGradient id="e" cx="817" cy="-391.48569" r="365.92999" fx="817" fy="-391.48569" gradientTransform="matrix(0 .28147 -2.50487 .00006 -163.61889 321.06065)" gradientUnits="userSpaceOnUse" xlink:href="#d"/><filter id="f" width="1.2725869" height="1.118856" x="-.13629344" y="-.05942798" color-interpolation-filters="sRGB"><feGaussianBlur stdDeviation="15.243352"/></filter></defs><rect width="268.42117" height="615.60303" x="693.69775" y="333.7345" fill="none" stroke="#076b60" stroke-linecap="round" stroke-linejoin="round" stroke-width="60.0942" rx="134.21059"/><path fill="url(#e)" d="M460.52701 592.38501H1192.387v47.210999H460.52701z"/><rect width="268.42117" height="615.60303" x="693.69775" y="333.7345" fill="none" stroke="#000" stroke-linecap="round" stroke-linejoin="round" stroke-width="24.5958" filter="url(#f)" opacity=".30639731" rx="134.21059" transform="matrix(1.0401 0 0 .9555 -33.196628 28.551252)"/><path fill="#00cdab" fill-opacity=".988235" d="M1228.0885 639.595v689.8005c0 31.4079-25.2851 56.693-56.693 56.693H481.51975c-31.40792 0-56.69301-25.2851-56.693-56.693l.00025-689.8005z"/><path fill="#049b84" d="M1192.3887 592.38477v47.21093h35.6992zM460.527 592.38477l-35.70083 47.21093h35.70117z"/><path style="line-height:normal;font-variant-ligatures:normal;font-variant-position:normal;font-variant-caps:normal;font-variant-numeric:normal;font-variant-alternates:normal;font-variant-east-asian:normal;font-feature-settings:normal;font-variation-settings:normal;text-indent:0;text-align:start;text-decoration-line:none;text-decoration-style:solid;text-decoration-color:#000;text-transform:none;text-orientation:mixed;white-space:normal;shape-padding:0;shape-margin:0;inline-size:0;isolation:auto;mix-blend-mode:normal;solid-color:#000;solid-opacity:1" fill="url(#g)" d="M827.9082 288.19336c-115.72582 0-209.98437 94.26051-209.98437 209.98633v292.01367c0 115.72581 94.25855 209.98434 209.98437 209.98434 115.72581 0 209.9844-94.25852 209.9844-209.98434V498.17969c0-115.72583-94.25859-209.98633-209.9844-209.98633zm0 70.06445c78.12259 0 139.92188 61.79929 139.92188 139.92188v292.01367c0 78.12258-61.79929 139.92187-139.92188 139.92187-78.1226 0-139.92187-61.79928-139.92187-139.92187V498.17969c0-78.12261 61.79927-139.92188 139.92187-139.92188z" color="#000" enable-background="accumulate" font-family="sans-serif" font-weight="400" overflow="visible"/></svg>
