<?xml version="1.0" standalone="no"?>
<!DOCTYPE svg PUBLIC "-//W3C//DTD SVG 20010904//EN"
 "http://www.w3.org/TR/2001/REC-SVG-20010904/DTD/svg10.dtd">
<svg version="1.0" xmlns="http://www.w3.org/2000/svg"
 width="874.000000pt" height="874.000000pt" viewBox="0 0 874.000000 874.000000"
 preserveAspectRatio="xMidYMid meet">
<metadata>
Created by potrace 1.11, written by Peter Selinger 2001-2013
</metadata>
<g transform="translate(0.000000,874.000000) scale(0.100000,-0.100000)"
fill="#000000" stroke="none">
<path d="M0 4370 l0 -4370 4370 0 4370 0 0 4370 0 4370 -4370 0 -4370 0 0
-4370z m4601 3384 c402 -68 750 -305 962 -655 88 -145 158 -343 172 -490 3
-35 8 -78 11 -95 l4 -32 363 -5 c457 -7 567 -25 757 -123 192 -99 318 -248
389 -460 65 -193 62 -72 58 -2214 -3 -2167 3 -1984 -71 -2182 -48 -127 -90
-192 -191 -294 -117 -117 -219 -172 -415 -222 -59 -15 -253 -16 -2165 -20
-1451 -2 -2133 0 -2206 8 -464 47 -732 274 -831 706 l-22 99 -4 1870 c-2 1289
0 1903 8 1976 38 384 213 646 511 766 179 72 349 93 770 93 l286 0 6 83 c13
159 75 357 161 512 86 153 253 336 406 444 152 108 377 201 565 235 112 20
359 20 476 0z"/>
<path d="M4248 7260 c-201 -32 -356 -108 -490 -242 -131 -131 -203 -285 -232
-495 l-6 -43 846 0 847 0 -7 58 c-24 208 -135 409 -298 542 -79 64 -220 134
-321 160 -91 23 -258 33 -339 20z"/>
</g>
</svg>
